<svg width="36" height="36" viewBox="0 0 36 36" fill="none" xmlns="http://www.w3.org/2000/svg">
<path fill-rule="evenodd" clip-rule="evenodd" d="M7.42683 3C6.25276 3 5.12678 3.4664 4.29659 4.29659C3.4664 5.12678 3 6.25276 3 7.42683C3 8.6009 3.4664 9.72688 4.29659 10.5571C5.12678 11.3873 6.25276 11.8537 7.42683 11.8537C8.6009 11.8537 9.72688 11.3873 10.5571 10.5571C11.3873 9.72688 11.8537 8.6009 11.8537 7.42683C11.8537 6.25276 11.3873 5.12678 10.5571 4.29659C9.72688 3.4664 8.6009 3 7.42683 3ZM5.41463 7.42683C5.41463 6.89316 5.62663 6.38135 6.00399 6.00399C6.38135 5.62663 6.89316 5.41463 7.42683 5.41463C7.9605 5.41463 8.47231 5.62663 8.84967 6.00399C9.22703 6.38135 9.43902 6.89316 9.43902 7.42683C9.43902 7.9605 9.22703 8.47231 8.84967 8.84967C8.47231 9.22703 7.9605 9.43902 7.42683 9.43902C6.89316 9.43902 6.38135 9.22703 6.00399 8.84967C5.62663 8.47231 5.41463 7.9605 5.41463 7.42683ZM3 13.8659C3 13.5457 3.1272 13.2386 3.35361 13.0122C3.58003 12.7857 3.88712 12.6585 4.20732 12.6585H10.6463C10.9665 12.6585 11.2736 12.7857 11.5 13.0122C11.7265 13.2386 11.8537 13.5457 11.8537 13.8659V34.7927C11.8537 35.1129 11.7265 35.42 11.5 35.6464C11.2736 35.8728 10.9665 36 10.6463 36H4.20732C3.88712 36 3.58003 35.8728 3.35361 35.6464C3.1272 35.42 3 35.1129 3 34.7927V13.8659ZM5.41463 15.0732V33.5854H9.43902V15.0732H5.41463ZM14.2683 13.8659C14.2683 13.5457 14.3955 13.2386 14.6219 13.0122C14.8483 12.7857 15.1554 12.6585 15.4756 12.6585H21.9146C22.2348 12.6585 22.5419 12.7857 22.7683 13.0122C22.9948 13.2386 23.122 13.5457 23.122 13.8659V14.5645L23.8222 14.2635C25.0295 13.7475 26.3104 13.4243 27.618 13.3057C32.0851 12.9 36 16.4093 36 20.9166V34.7927C36 35.1129 35.8728 35.42 35.6464 35.6464C35.42 35.8728 35.1129 36 34.7927 36H28.3537C28.0335 36 27.7264 35.8728 27.5 35.6464C27.2735 35.42 27.1463 35.1129 27.1463 34.7927V23.5244C27.1463 22.9907 26.9343 22.4789 26.557 22.1016C26.1796 21.7242 25.6678 21.5122 25.1341 21.5122C24.6005 21.5122 24.0887 21.7242 23.7113 22.1016C23.334 22.4789 23.122 22.9907 23.122 23.5244V34.7927C23.122 35.1129 22.9948 35.42 22.7683 35.6464C22.5419 35.8728 22.2348 36 21.9146 36H15.4756C15.1554 36 14.8483 35.8728 14.6219 35.6464C14.3955 35.42 14.2683 35.1129 14.2683 34.7927V13.8659ZM16.6829 15.0732V33.5854H20.7073V23.5244C20.7073 22.3503 21.1737 21.2243 22.0039 20.3941C22.8341 19.564 23.9601 19.0976 25.1341 19.0976C26.3082 19.0976 27.4342 19.564 28.2644 20.3941C29.0946 21.2243 29.561 22.3503 29.561 23.5244V33.5854H33.5854V20.9166C33.5854 17.8516 30.9116 15.4305 27.8385 15.7106C26.7828 15.8067 25.7486 16.0674 24.7736 16.4833L22.3911 17.5055C22.2074 17.5844 22.0069 17.6165 21.8077 17.5988C21.6085 17.581 21.4168 17.5141 21.2498 17.404C21.0829 17.2939 20.9459 17.144 20.8512 16.9678C20.7565 16.7917 20.7071 16.5948 20.7073 16.3948V15.0732H16.6829Z" fill="#F4F4F4"/>
</svg>
