<svg width="36" height="36" viewBox="0 0 36 36" fill="none" xmlns="http://www.w3.org/2000/svg">
<g clip-path="url(#clip0_6_88)">
<path fill-rule="evenodd" clip-rule="evenodd" d="M15.732 9.682C17.2087 8.20509 19.2115 7.37525 21.3 7.375H25.35C25.6484 7.375 25.9345 7.49353 26.1455 7.7045C26.3565 7.91548 26.475 8.20163 26.475 8.5V13.9C26.475 14.1984 26.3565 14.4845 26.1455 14.6955C25.9345 14.9065 25.6484 15.025 25.35 15.025H21.3C21.2705 15.025 21.2412 15.0308 21.2139 15.0421C21.1866 15.0534 21.1618 15.07 21.1409 15.0909C21.12 15.1118 21.1034 15.1366 21.0921 15.1639C21.0808 15.1912 21.075 15.2205 21.075 15.25V18.175H25.35C25.521 18.1749 25.6898 18.2138 25.8436 18.2887C25.9973 18.3637 26.1319 18.4727 26.2372 18.6075C26.3425 18.7423 26.4157 18.8993 26.4511 19.0666C26.4866 19.2339 26.4835 19.4071 26.442 19.573L25.092 24.973C25.0311 25.2165 24.8905 25.4326 24.6927 25.587C24.4948 25.7414 24.251 25.8251 24 25.825H21.075V35.5C21.075 35.7984 20.9565 36.0845 20.7455 36.2955C20.5345 36.5065 20.2484 36.625 19.95 36.625H14.55C14.2516 36.625 13.9655 36.5065 13.7545 36.2955C13.5435 36.0845 13.425 35.7984 13.425 35.5V25.825H10.5C10.2016 25.825 9.91548 25.7065 9.7045 25.4955C9.49353 25.2845 9.375 24.9984 9.375 24.7V19.3C9.375 19.1523 9.4041 19.006 9.46064 18.8695C9.51717 18.733 9.60004 18.609 9.7045 18.5045C9.80897 18.4 9.93299 18.3172 10.0695 18.2606C10.206 18.2041 10.3523 18.175 10.5 18.175H13.425V15.25C13.4252 13.1615 14.2551 11.1587 15.732 9.682ZM21.3 9.625C19.8082 9.625 18.3774 10.2176 17.3225 11.2725C16.2676 12.3274 15.675 13.7582 15.675 15.25V19.3C15.675 19.5984 15.5565 19.8845 15.3455 20.0955C15.1345 20.3065 14.8484 20.425 14.55 20.425H11.625V23.575H14.55C14.8484 23.575 15.1345 23.6935 15.3455 23.9045C15.5565 24.1155 15.675 24.4016 15.675 24.7V34.375H18.825V24.7C18.825 24.4016 18.9435 24.1155 19.1545 23.9045C19.3655 23.6935 19.6516 23.575 19.95 23.575H23.121L23.9085 20.425H19.95C19.6516 20.425 19.3655 20.3065 19.1545 20.0955C18.9435 19.8845 18.825 19.5984 18.825 19.3V15.25C18.825 14.5936 19.0858 13.9641 19.5499 13.4999C20.0141 13.0358 20.6436 12.775 21.3 12.775H24.225V9.625H21.3Z" fill="#F4F4F4"/>
</g>
<defs>
<clipPath id="clip0_6_88">
<rect width="36" height="36" fill="white"/>
</clipPath>
</defs>
</svg>
