<svg width="40" height="39" viewBox="0 0 40 39" fill="none" xmlns="http://www.w3.org/2000/svg">
<path d="M26.3672 24.2741C26.2564 24.2713 26.1472 24.2467 26.0458 24.2016C25.9445 24.1566 25.8531 24.092 25.7767 24.0116C25.7004 23.9312 25.6406 23.8365 25.6009 23.733C25.5611 23.6295 25.5422 23.5192 25.5451 23.4083L25.7709 14.7088L13.787 26.0882C13.6248 26.2423 13.4079 26.3256 13.1842 26.3199C12.9605 26.3141 12.7483 26.2197 12.5942 26.0574C12.4401 25.8951 12.3568 25.6783 12.3626 25.4546C12.3684 25.2309 12.4628 25.0186 12.6251 24.8645L24.6089 13.4851L15.9094 13.2608C15.6855 13.255 15.4732 13.1605 15.319 12.9981C15.1648 12.8358 15.0815 12.6188 15.0873 12.395C15.0931 12.1712 15.1875 11.9588 15.3499 11.8046C15.5122 11.6505 15.7292 11.5671 15.953 11.5729L26.6886 11.8506C26.7995 11.8534 26.9087 11.8781 27.01 11.9231C27.1113 11.9681 27.2028 12.0327 27.2791 12.1131C27.3555 12.1935 27.4152 12.2882 27.455 12.3917C27.4947 12.4952 27.5137 12.6056 27.5107 12.7164L27.233 23.452C27.2302 23.5628 27.2056 23.672 27.1605 23.7734C27.1155 23.8747 27.0509 23.9661 26.9705 24.0425C26.8901 24.1188 26.7954 24.1786 26.6919 24.2183C26.5884 24.2581 26.4781 24.277 26.3672 24.2741Z" fill="#030303"/>
</svg>
